<svg xmlns="http://www.w3.org/2000/svg" viewBox="0 0 400 300">
  <rect width="400" height="300" fill="#f7f1e6"/>
  <ellipse cx="200" cy="262" rx="120" ry="12" fill="#e0d5c0"/>
  <ellipse cx="200" cy="248" rx="104" ry="16" fill="#c99b62"/>
  <ellipse cx="200" cy="222" rx="90" ry="15" fill="#d3a76e"/>
  <ellipse cx="200" cy="197" rx="76" ry="14" fill="#c99b62"/>
  <ellipse cx="200" cy="173" rx="62" ry="13" fill="#d3a76e"/>
  <ellipse cx="200" cy="150" rx="49" ry="12" fill="#c99b62"/>
  <ellipse cx="200" cy="128" rx="37" ry="11" fill="#d3a76e"/>
  <ellipse cx="200" cy="108" rx="26" ry="10" fill="#c99b62"/>
  <ellipse cx="200" cy="90" rx="16" ry="8" fill="#d3a76e"/>
  <path d="M140 236 q10 8 22 2 M225 240 q12 6 24 -2 M160 208 q10 7 20 2 M212 212 q11 6 22 -1 M176 184 q9 6 18 1 M198 160 q9 6 18 0 M186 137 q8 5 16 1 M194 116 q7 4 14 0" stroke="#fdf8f0" stroke-width="4" fill="none" stroke-linecap="round"/>
  <circle cx="200" cy="78" r="6" fill="#b3261e"/>
</svg>
